<svg width="444" height="26" viewBox="0 0 444 26" fill="none" xmlns="http://www.w3.org/2000/svg">
<path d="M0 9.97388H159.249V11.0285H0V9.97388Z" fill="#4F4F4F"/>
<path d="M284.75 9.97388H443.999V11.0285H284.75V9.97388Z" fill="#4F4F4F"/>
<path d="M176.613 14.6523L173.654 5.74017H174.468L176.613 12.5898L178.898 5.40033L181.271 12.5312L183.333 5.74017H184.142L181.271 14.6523L178.898 7.36908L176.613 14.6523ZM185.355 14.3183V5.74017H186.134V9.22064H190.804V5.74017H191.583V14.3183H190.804V9.88861H186.134V14.3183H185.355ZM195.562 14.3183V10.3691L192.714 5.74017H193.652L195.954 9.67181L198.269 5.74017H199.159L196.341 10.3691V14.3183H195.562ZM210.62 7.31049C210.195 6.9433 209.759 6.67181 209.314 6.49603C208.868 6.32025 208.4 6.23236 207.908 6.23236C206.798 6.23236 205.896 6.58392 205.2 7.28705C204.509 7.99017 204.163 8.90619 204.163 10.0351C204.163 10.6015 204.247 11.1113 204.415 11.5644C204.587 12.0175 204.847 12.4199 205.195 12.7714C205.538 13.1152 205.931 13.3769 206.372 13.5566C206.818 13.7363 207.294 13.8261 207.802 13.8261C208.294 13.8261 208.775 13.7421 209.243 13.5742C209.712 13.4062 210.156 13.1581 210.574 12.83V13.7441C210.152 14.0019 209.704 14.1992 209.232 14.3359C208.763 14.4765 208.298 14.5468 207.837 14.5468C207.216 14.5468 206.622 14.4355 206.056 14.2128C205.49 13.9902 205.003 13.6777 204.597 13.2753C204.179 12.8613 203.863 12.3808 203.648 11.8339C203.433 11.287 203.325 10.6874 203.325 10.0351C203.325 9.39447 203.435 8.79681 203.654 8.24213C203.876 7.68744 204.195 7.20892 204.609 6.80658C205.011 6.41205 205.495 6.10345 206.062 5.8808C206.632 5.65814 207.224 5.54681 207.837 5.54681C208.384 5.54681 208.89 5.62299 209.355 5.77533C209.824 5.92377 210.249 6.14838 210.632 6.44916L210.62 7.31049ZM212.308 14.3183V5.74017H213.087V9.22064H217.757V5.74017H218.536V14.3183H217.757V9.88861H213.087V14.3183H212.308ZM224.853 13.8495C225.361 13.8495 225.841 13.7558 226.294 13.5683C226.747 13.3808 227.156 13.1074 227.519 12.748C227.874 12.3847 228.146 11.9726 228.333 11.5117C228.525 11.0468 228.62 10.5585 228.62 10.0468C228.62 9.53119 228.527 9.04486 228.339 8.58783C228.152 8.12689 227.878 7.71283 227.519 7.34564C227.163 6.98627 226.757 6.71283 226.3 6.52533C225.847 6.33783 225.365 6.24408 224.853 6.24408C224.345 6.24408 223.866 6.33783 223.417 6.52533C222.968 6.71283 222.562 6.98627 222.199 7.34564C221.839 7.71674 221.566 8.1308 221.378 8.58783C221.191 9.04095 221.097 9.52728 221.097 10.0468C221.097 10.5624 221.191 11.0507 221.378 11.5117C221.566 11.9687 221.839 12.3808 222.199 12.748C222.558 13.1113 222.96 13.3867 223.406 13.5742C223.851 13.7578 224.333 13.8495 224.853 13.8495ZM229.447 10.0468C229.447 10.6523 229.331 11.2285 229.101 11.7753C228.87 12.3183 228.538 12.8027 228.105 13.2285C227.663 13.6581 227.165 13.9863 226.611 14.2128C226.056 14.4355 225.47 14.5468 224.853 14.5468C224.236 14.5468 223.65 14.4355 223.095 14.2128C222.544 13.9863 222.05 13.6581 221.613 13.2285C221.175 12.7949 220.841 12.3085 220.611 11.7695C220.384 11.2265 220.271 10.6523 220.271 10.0468C220.271 9.43353 220.384 8.85541 220.611 8.31244C220.841 7.76556 221.175 7.27533 221.613 6.84174C222.042 6.41595 222.533 6.09369 223.083 5.87494C223.634 5.65619 224.224 5.54681 224.853 5.54681C225.486 5.54681 226.077 5.65814 226.628 5.8808C227.183 6.09955 227.675 6.41986 228.105 6.84174C228.542 7.27533 228.874 7.76556 229.101 8.31244C229.331 8.85541 229.447 9.43353 229.447 10.0468ZM235.353 13.8495C235.861 13.8495 236.341 13.7558 236.794 13.5683C237.247 13.3808 237.656 13.1074 238.019 12.748C238.374 12.3847 238.646 11.9726 238.833 11.5117C239.025 11.0468 239.12 10.5585 239.12 10.0468C239.12 9.53119 239.027 9.04486 238.839 8.58783C238.652 8.12689 238.378 7.71283 238.019 7.34564C237.663 6.98627 237.257 6.71283 236.8 6.52533C236.347 6.33783 235.865 6.24408 235.353 6.24408C234.845 6.24408 234.366 6.33783 233.917 6.52533C233.468 6.71283 233.062 6.98627 232.699 7.34564C232.339 7.71674 232.066 8.1308 231.878 8.58783C231.691 9.04095 231.597 9.52728 231.597 10.0468C231.597 10.5624 231.691 11.0507 231.878 11.5117C232.066 11.9687 232.339 12.3808 232.699 12.748C233.058 13.1113 233.46 13.3867 233.906 13.5742C234.351 13.7578 234.833 13.8495 235.353 13.8495ZM239.947 10.0468C239.947 10.6523 239.831 11.2285 239.601 11.7753C239.37 12.3183 239.038 12.8027 238.605 13.2285C238.163 13.6581 237.665 13.9863 237.111 14.2128C236.556 14.4355 235.97 14.5468 235.353 14.5468C234.736 14.5468 234.15 14.4355 233.595 14.2128C233.044 13.9863 232.55 13.6581 232.113 13.2285C231.675 12.7949 231.341 12.3085 231.111 11.7695C230.884 11.2265 230.771 10.6523 230.771 10.0468C230.771 9.43353 230.884 8.85541 231.111 8.31244C231.341 7.76556 231.675 7.27533 232.113 6.84174C232.542 6.41595 233.033 6.09369 233.583 5.87494C234.134 5.65619 234.724 5.54681 235.353 5.54681C235.986 5.54681 236.577 5.65814 237.128 5.8808C237.683 6.09955 238.175 6.41986 238.605 6.84174C239.042 7.27533 239.374 7.76556 239.601 8.31244C239.831 8.85541 239.947 9.43353 239.947 10.0468ZM241.019 12.8769L241.687 12.5195C241.812 12.9413 242.027 13.2695 242.331 13.5038C242.64 13.7343 243.009 13.8495 243.439 13.8495C243.982 13.8495 244.406 13.6894 244.71 13.3691C245.015 13.0488 245.167 12.6054 245.167 12.039C245.167 11.6249 245.064 11.2812 244.857 11.0078C244.654 10.7343 244.214 10.4179 243.538 10.0585C242.675 9.6015 242.101 9.19916 241.816 8.8515C241.531 8.50385 241.388 8.08588 241.388 7.5976C241.388 6.98822 241.593 6.49213 242.003 6.10931C242.417 5.7265 242.952 5.5351 243.609 5.5351C244.038 5.5351 244.411 5.62689 244.728 5.81049C245.048 5.99017 245.308 6.26166 245.507 6.62494L244.904 6.98822C244.779 6.74213 244.601 6.55463 244.37 6.42572C244.144 6.29681 243.874 6.23236 243.562 6.23236C243.14 6.23236 242.804 6.35736 242.554 6.60736C242.304 6.85345 242.179 7.18744 242.179 7.60931C242.179 8.21088 242.675 8.77142 243.667 9.29095C243.847 9.3847 243.984 9.45697 244.077 9.50775C244.808 9.9101 245.296 10.291 245.542 10.6503C245.788 11.0058 245.911 11.4687 245.911 12.039C245.911 12.8085 245.687 13.4199 245.238 13.873C244.788 14.3222 244.177 14.5468 243.404 14.5468C242.841 14.5468 242.359 14.4081 241.956 14.1308C241.558 13.8495 241.245 13.4316 241.019 12.8769ZM247.652 14.3183V5.74017H251.9V6.4726H248.431V9.15619H251.9V9.88861H248.431V13.5859H251.9V14.3183H247.652ZM257.238 5.74017H258.005V11.3417C258.005 12.1894 258.199 12.8203 258.585 13.2343C258.972 13.6445 259.564 13.8495 260.361 13.8495C261.146 13.8495 261.732 13.6445 262.118 13.2343C262.505 12.8203 262.699 12.1894 262.699 11.3417V5.74017H263.478V11.0898C263.478 12.2499 263.22 13.1171 262.704 13.6913C262.189 14.2617 261.408 14.5468 260.361 14.5468C259.31 14.5468 258.527 14.2617 258.011 13.6913C257.495 13.1171 257.238 12.2499 257.238 11.0898V5.74017ZM264.925 12.8769L265.593 12.5195C265.718 12.9413 265.933 13.2695 266.238 13.5038C266.546 13.7343 266.915 13.8495 267.345 13.8495C267.888 13.8495 268.312 13.6894 268.617 13.3691C268.921 13.0488 269.074 12.6054 269.074 12.039C269.074 11.6249 268.97 11.2812 268.763 11.0078C268.56 10.7343 268.12 10.4179 267.445 10.0585C266.581 9.6015 266.007 9.19916 265.722 8.8515C265.437 8.50385 265.294 8.08588 265.294 7.5976C265.294 6.98822 265.499 6.49213 265.909 6.10931C266.324 5.7265 266.859 5.5351 267.515 5.5351C267.945 5.5351 268.318 5.62689 268.634 5.81049C268.954 5.99017 269.214 6.26166 269.413 6.62494L268.81 6.98822C268.685 6.74213 268.507 6.55463 268.277 6.42572C268.05 6.29681 267.781 6.23236 267.468 6.23236C267.046 6.23236 266.71 6.35736 266.46 6.60736C266.21 6.85345 266.085 7.18744 266.085 7.60931C266.085 8.21088 266.581 8.77142 267.574 9.29095C267.753 9.3847 267.89 9.45697 267.984 9.50775C268.714 9.9101 269.202 10.291 269.449 10.6503C269.695 11.0058 269.818 11.4687 269.818 12.039C269.818 12.8085 269.593 13.4199 269.144 13.873C268.695 14.3222 268.083 14.5468 267.31 14.5468C266.747 14.5468 266.265 14.4081 265.863 14.1308C265.464 13.8495 265.152 13.4316 264.925 12.8769Z" fill="#4F4F4F"/>
</svg>
