<svg width="444" height="26" viewBox="0 0 444 26" fill="none" xmlns="http://www.w3.org/2000/svg">
<path d="M0 9.65558H117.064V10.7102H0V9.65558Z" fill="#4F4F4F"/>
<path d="M326.936 9.65558H444V10.7102H326.936V9.65558Z" fill="#4F4F4F"/>
<path d="M144.509 14V6.1543H142.147V5.42188H147.655V6.1543H145.288V14H144.509ZM149.73 6.10156V9.27148H150.515C151.241 9.27148 151.747 9.15625 152.032 8.92578C152.321 8.69141 152.466 8.29492 152.466 7.73633C152.466 7.14648 152.317 6.72656 152.021 6.47656C151.724 6.22656 151.222 6.10156 150.515 6.10156H149.73ZM154.159 14H153.21L150.198 9.91016H149.73V14H148.95V5.42188H150.526C151.456 5.42188 152.151 5.61523 152.612 6.00195C153.077 6.38867 153.31 6.97461 153.31 7.75977C153.31 8.42773 153.11 8.95312 152.712 9.33594C152.317 9.71875 151.772 9.91016 151.077 9.91016L154.159 14ZM155.255 5.42188H156.022V11.0234C156.022 11.8711 156.216 12.502 156.603 12.916C156.989 13.3262 157.581 13.5312 158.378 13.5312C159.163 13.5312 159.749 13.3262 160.136 12.916C160.522 12.502 160.716 11.8711 160.716 11.0234V5.42188H161.495V10.7715C161.495 11.9316 161.237 12.7988 160.722 13.373C160.206 13.9434 159.425 14.2285 158.378 14.2285C157.327 14.2285 156.544 13.9434 156.028 13.373C155.513 12.7988 155.255 11.9316 155.255 10.7715V5.42188ZM162.942 12.5586L163.61 12.2012C163.735 12.623 163.95 12.9512 164.255 13.1855C164.563 13.416 164.933 13.5312 165.362 13.5312C165.905 13.5312 166.329 13.3711 166.634 13.0508C166.938 12.7305 167.091 12.2871 167.091 11.7207C167.091 11.3066 166.987 10.9629 166.78 10.6895C166.577 10.416 166.138 10.0996 165.462 9.74023C164.599 9.2832 164.024 8.88086 163.739 8.5332C163.454 8.18555 163.312 7.76758 163.312 7.2793C163.312 6.66992 163.517 6.17383 163.927 5.79102C164.341 5.4082 164.876 5.2168 165.532 5.2168C165.962 5.2168 166.335 5.30859 166.651 5.49219C166.972 5.67188 167.231 5.94336 167.431 6.30664L166.827 6.66992C166.702 6.42383 166.524 6.23633 166.294 6.10742C166.067 5.97852 165.798 5.91406 165.485 5.91406C165.063 5.91406 164.728 6.03906 164.478 6.28906C164.228 6.53516 164.103 6.86914 164.103 7.29102C164.103 7.89258 164.599 8.45312 165.591 8.97266C165.771 9.06641 165.907 9.13867 166.001 9.18945C166.731 9.5918 167.22 9.97266 167.466 10.332C167.712 10.6875 167.835 11.1504 167.835 11.7207C167.835 12.4902 167.61 13.1016 167.161 13.5547C166.712 14.0039 166.101 14.2285 165.327 14.2285C164.765 14.2285 164.282 14.0898 163.88 13.8125C163.481 13.5312 163.169 13.1133 162.942 12.5586ZM171.099 14V6.1543H168.737V5.42188H174.245V6.1543H171.878V14H171.099ZM175.54 14V5.42188H179.788V6.1543H176.319V8.83789H179.788V9.57031H176.319V13.2676H179.788V14H175.54ZM182.483 13.3262H183.579C184.466 13.3262 185.095 13.2773 185.466 13.1797C185.837 13.0781 186.151 12.9082 186.409 12.6699C186.769 12.334 187.04 11.916 187.224 11.416C187.407 10.916 187.499 10.3457 187.499 9.70508C187.499 9.04883 187.405 8.4707 187.218 7.9707C187.034 7.4707 186.761 7.06055 186.397 6.74023C186.124 6.49414 185.79 6.32031 185.396 6.21875C185.001 6.11719 184.312 6.06641 183.327 6.06641H183.181H182.483V13.3262ZM181.704 14V5.42188H183.04C184.231 5.42188 185.077 5.48047 185.577 5.59766C186.077 5.71484 186.507 5.91602 186.866 6.20117C187.343 6.58008 187.706 7.06836 187.956 7.66602C188.206 8.26367 188.331 8.94727 188.331 9.7168C188.331 10.4863 188.206 11.1719 187.956 11.7734C187.706 12.3711 187.347 12.8496 186.878 13.209C186.507 13.4941 186.083 13.6973 185.606 13.8184C185.13 13.9395 184.362 14 183.304 14H183.04H181.704ZM200.419 6.99219C199.993 6.625 199.558 6.35352 199.112 6.17773C198.667 6.00195 198.198 5.91406 197.706 5.91406C196.597 5.91406 195.694 6.26562 194.999 6.96875C194.308 7.67188 193.962 8.58789 193.962 9.7168C193.962 10.2832 194.046 10.793 194.214 11.2461C194.386 11.6992 194.646 12.1016 194.993 12.4531C195.337 12.7969 195.73 13.0586 196.171 13.2383C196.616 13.418 197.093 13.5078 197.601 13.5078C198.093 13.5078 198.573 13.4238 199.042 13.2559C199.511 13.0879 199.954 12.8398 200.372 12.5117V13.4258C199.95 13.6836 199.503 13.8809 199.03 14.0176C198.562 14.1582 198.097 14.2285 197.636 14.2285C197.015 14.2285 196.421 14.1172 195.855 13.8945C195.288 13.6719 194.802 13.3594 194.396 12.957C193.978 12.543 193.661 12.0625 193.446 11.5156C193.231 10.9688 193.124 10.3691 193.124 9.7168C193.124 9.07617 193.233 8.47852 193.452 7.92383C193.675 7.36914 193.993 6.89062 194.407 6.48828C194.81 6.09375 195.294 5.78516 195.86 5.5625C196.431 5.33984 197.022 5.22852 197.636 5.22852C198.183 5.22852 198.688 5.30469 199.153 5.45703C199.622 5.60547 200.048 5.83008 200.431 6.13086L200.419 6.99219ZM202.071 5.42188H202.839V11.0234C202.839 11.8711 203.032 12.502 203.419 12.916C203.806 13.3262 204.397 13.5312 205.194 13.5312C205.98 13.5312 206.565 13.3262 206.952 12.916C207.339 12.502 207.532 11.8711 207.532 11.0234V5.42188H208.312V10.7715C208.312 11.9316 208.054 12.7988 207.538 13.373C207.022 13.9434 206.241 14.2285 205.194 14.2285C204.144 14.2285 203.36 13.9434 202.845 13.373C202.329 12.7988 202.071 11.9316 202.071 10.7715V5.42188ZM209.759 12.5586L210.427 12.2012C210.552 12.623 210.767 12.9512 211.071 13.1855C211.38 13.416 211.749 13.5312 212.179 13.5312C212.722 13.5312 213.146 13.3711 213.45 13.0508C213.755 12.7305 213.907 12.2871 213.907 11.7207C213.907 11.3066 213.804 10.9629 213.597 10.6895C213.394 10.416 212.954 10.0996 212.278 9.74023C211.415 9.2832 210.841 8.88086 210.556 8.5332C210.271 8.18555 210.128 7.76758 210.128 7.2793C210.128 6.66992 210.333 6.17383 210.743 5.79102C211.157 5.4082 211.692 5.2168 212.349 5.2168C212.778 5.2168 213.151 5.30859 213.468 5.49219C213.788 5.67188 214.048 5.94336 214.247 6.30664L213.644 6.66992C213.519 6.42383 213.341 6.23633 213.11 6.10742C212.884 5.97852 212.614 5.91406 212.302 5.91406C211.88 5.91406 211.544 6.03906 211.294 6.28906C211.044 6.53516 210.919 6.86914 210.919 7.29102C210.919 7.89258 211.415 8.45312 212.407 8.97266C212.587 9.06641 212.724 9.13867 212.817 9.18945C213.548 9.5918 214.036 9.97266 214.282 10.332C214.528 10.6875 214.651 11.1504 214.651 11.7207C214.651 12.4902 214.427 13.1016 213.978 13.5547C213.528 14.0039 212.917 14.2285 212.144 14.2285C211.581 14.2285 211.099 14.0898 210.696 13.8125C210.298 13.5312 209.985 13.1133 209.759 12.5586ZM217.915 14V6.1543H215.554V5.42188H221.062V6.1543H218.694V14H217.915ZM225.878 13.5312C226.386 13.5312 226.866 13.4375 227.319 13.25C227.772 13.0625 228.181 12.7891 228.544 12.4297C228.899 12.0664 229.171 11.6543 229.358 11.1934C229.55 10.7285 229.646 10.2402 229.646 9.72852C229.646 9.21289 229.552 8.72656 229.364 8.26953C229.177 7.80859 228.903 7.39453 228.544 7.02734C228.188 6.66797 227.782 6.39453 227.325 6.20703C226.872 6.01953 226.39 5.92578 225.878 5.92578C225.37 5.92578 224.892 6.01953 224.442 6.20703C223.993 6.39453 223.587 6.66797 223.224 7.02734C222.864 7.39844 222.591 7.8125 222.403 8.26953C222.216 8.72266 222.122 9.20898 222.122 9.72852C222.122 10.2441 222.216 10.7324 222.403 11.1934C222.591 11.6504 222.864 12.0625 223.224 12.4297C223.583 12.793 223.985 13.0684 224.431 13.2559C224.876 13.4395 225.358 13.5312 225.878 13.5312ZM230.472 9.72852C230.472 10.334 230.356 10.9102 230.126 11.457C229.896 12 229.563 12.4844 229.13 12.9102C228.688 13.3398 228.19 13.668 227.636 13.8945C227.081 14.1172 226.495 14.2285 225.878 14.2285C225.261 14.2285 224.675 14.1172 224.12 13.8945C223.569 13.668 223.075 13.3398 222.638 12.9102C222.2 12.4766 221.866 11.9902 221.636 11.4512C221.409 10.9082 221.296 10.334 221.296 9.72852C221.296 9.11523 221.409 8.53711 221.636 7.99414C221.866 7.44727 222.2 6.95703 222.638 6.52344C223.067 6.09766 223.558 5.77539 224.108 5.55664C224.659 5.33789 225.249 5.22852 225.878 5.22852C226.511 5.22852 227.103 5.33984 227.653 5.5625C228.208 5.78125 228.7 6.10156 229.13 6.52344C229.567 6.95703 229.899 7.44727 230.126 7.99414C230.356 8.53711 230.472 9.11523 230.472 9.72852ZM236.114 14.334L233.103 7.44922L232.452 14H231.649L232.815 5.05859L236.103 12.6934L239.513 5.05859L240.614 14H239.812L239.173 7.44922L236.114 14.334ZM242.231 14V5.42188H246.48V6.1543H243.011V8.83789H246.48V9.57031H243.011V13.2676H246.48V14H242.231ZM249.175 6.10156V9.27148H249.96C250.687 9.27148 251.192 9.15625 251.478 8.92578C251.767 8.69141 251.911 8.29492 251.911 7.73633C251.911 7.14648 251.763 6.72656 251.466 6.47656C251.169 6.22656 250.667 6.10156 249.96 6.10156H249.175ZM253.605 14H252.655L249.644 9.91016H249.175V14H248.396V5.42188H249.972C250.901 5.42188 251.597 5.61523 252.058 6.00195C252.522 6.38867 252.755 6.97461 252.755 7.75977C252.755 8.42773 252.556 8.95312 252.157 9.33594C251.763 9.71875 251.218 9.91016 250.522 9.91016L253.605 14ZM258.972 6.10156V9.27148H259.757C260.483 9.27148 260.989 9.15625 261.274 8.92578C261.563 8.69141 261.708 8.29492 261.708 7.73633C261.708 7.14648 261.56 6.72656 261.263 6.47656C260.966 6.22656 260.464 6.10156 259.757 6.10156H258.972ZM263.401 14H262.452L259.44 9.91016H258.972V14H258.192V5.42188H259.769C260.698 5.42188 261.394 5.61523 261.855 6.00195C262.319 6.38867 262.552 6.97461 262.552 7.75977C262.552 8.42773 262.353 8.95312 261.954 9.33594C261.56 9.71875 261.015 9.91016 260.319 9.91016L263.401 14ZM264.532 14V5.42188H268.78V6.1543H265.312V8.83789H268.78V9.57031H265.312V13.2676H268.78V14H264.532ZM272.882 14.334L269.524 5.42188H270.421L272.894 12.4062L275.495 5.42188H276.351L272.882 14.334ZM277.306 14V5.42188H278.085V14H277.306ZM280.224 14V5.42188H284.472V6.1543H281.003V8.83789H284.472V9.57031H281.003V13.2676H284.472V14H280.224ZM288.427 14.334L285.468 5.42188H286.282L288.427 12.2715L290.712 5.08203L293.085 12.2129L295.147 5.42188H295.956L293.085 14.334L290.712 7.05078L288.427 14.334ZM296.513 12.5586L297.181 12.2012C297.306 12.623 297.521 12.9512 297.825 13.1855C298.134 13.416 298.503 13.5312 298.933 13.5312C299.476 13.5312 299.899 13.3711 300.204 13.0508C300.509 12.7305 300.661 12.2871 300.661 11.7207C300.661 11.3066 300.558 10.9629 300.351 10.6895C300.147 10.416 299.708 10.0996 299.032 9.74023C298.169 9.2832 297.595 8.88086 297.31 8.5332C297.024 8.18555 296.882 7.76758 296.882 7.2793C296.882 6.66992 297.087 6.17383 297.497 5.79102C297.911 5.4082 298.446 5.2168 299.103 5.2168C299.532 5.2168 299.905 5.30859 300.222 5.49219C300.542 5.67188 300.802 5.94336 301.001 6.30664L300.397 6.66992C300.272 6.42383 300.095 6.23633 299.864 6.10742C299.638 5.97852 299.368 5.91406 299.056 5.91406C298.634 5.91406 298.298 6.03906 298.048 6.28906C297.798 6.53516 297.673 6.86914 297.673 7.29102C297.673 7.89258 298.169 8.45312 299.161 8.97266C299.341 9.06641 299.478 9.13867 299.571 9.18945C300.302 9.5918 300.79 9.97266 301.036 10.332C301.282 10.6875 301.405 11.1504 301.405 11.7207C301.405 12.4902 301.181 13.1016 300.731 13.5547C300.282 14.0039 299.671 14.2285 298.897 14.2285C298.335 14.2285 297.853 14.0898 297.45 13.8125C297.052 13.5312 296.739 13.1133 296.513 12.5586Z" fill="#4F4F4F"/>
</svg>
